<?xml version="1.0" encoding="utf-8"?>
<!-- Generator: Adobe Illustrator 19.1.0, SVG Export Plug-In . SVG Version: 6.00 Build 0)  -->
<svg version="1.1" xmlns="http://www.w3.org/2000/svg" xmlns:xlink="http://www.w3.org/1999/xlink" x="0px" y="0px"
	 viewBox="0 0 200 500" style="enable-background:new 0 0 200 500;" xml:space="preserve">
<style type="text/css">
	.st0{
		fill:#FFFFFF;
		stroke:#000000;
		stroke-miterlimit:10;
	}

	.st1{
		fill:none;
		stroke:#030303;
		stroke-width:0.25;
		stroke-miterlimit:10;

		stroke-dasharray: 1000;
		stroke-dashoffset: 1000;
		-webkit-animation: lines 30s linear forwards;
		animation: lines 30s linear forwards;
	}

	.st2{
		fill:none;
		stroke:#030303;
		stroke-miterlimit:10;

		stroke-dasharray: 1000;
		stroke-dashoffset: 1000;
		-webkit-animation: lines 30s linear forwards;
		animation: lines 30s linear forwards;
	}

	@-webkit-keyframes lines {

		to { 
			stroke-dashoffset: 0;
		}
	}

	@keyframes lines {
		to{ 
			stroke-dashoffset: 0;
		}
	}

</style>
<g id="Layer_3">
	<rect class="st0" width="200" height="500"/>
</g>
<g id="body">
	<path class="st1" d="M85.1,13.3l-8.3,3.2l-5.5,9.2c0,0-1.5,8.9-0.6,10.3"/>
	<path class="st1" d="M88.9,13.3l3.3,0.7l2.1,1l-0.6,0.7c0,0,6.4,2.9,7.7,4.8"/>
	<line class="st1" x1="102.9" y1="24.7" x2="102.9" y2="36"/>
	<polyline class="st1" points="86.4,14.2 87.2,20.6 78.9,25.9 76.1,30.3 	"/>
	<polyline class="st1" points="77.8,30.3 76.1,32.3 73.5,37.4 	"/>
	<line class="st1" x1="88.9" y1="21.4" x2="92.1" y2="22.3"/>
	<line class="st1" x1="93.1" y1="23.9" x2="99.1" y2="30.3"/>
	<line class="st1" x1="99.7" y1="31.1" x2="100.9" y2="36"/>
	<path class="st1" d="M100.9,36.7c0,0-0.5,7.5-1.2,9.1"/>
	<line class="st1" x1="72.9" y1="37.4" x2="75" y2="45.8"/>
	<polyline class="st1" points="86.7,27.1 87.2,38.6 88,40.5 	"/>
	<path class="st1" d="M88,41.6c0,0-0.2,9.3,1,12"/>
	<path class="st1" d="M76.1,41.2l10.7,0.4c0,0,4.2-0.1,5.4-0.4"/>
	<line class="st1" x1="72.3" y1="38.9" x2="70.8" y2="37.4"/>
	<line class="st1" x1="70.8" y1="38.2" x2="73.5" y2="46.4"/>
	<polyline class="st1" points="101.4,39.7 102.9,39.7 101.4,45.8 	"/>
	<path class="st1" d="M99.7,46.4c0,0-0.7,3.8-3.1,4.9c-2.3,1.1-4.5,4.3-4.5,4.3l-1.6,0.6c0,0-4,0.2-5.4-0.9c-1.3-1.1-2-0.6-2-0.6"/>
	<line class="st1" x1="79.1" y1="51.3" x2="83.2" y2="55.3"/>
	<polyline class="st1" points="79.6,53.3 79.6,56.2 85.1,73.8 	"/>
	<polyline class="st1" points="81.2,62.3 81.2,66 85.1,76.8 	"/>
	<polyline class="st1" points="95.6,52.8 96.5,56.2 97.1,64.7 97.5,65.7 97.5,68.7 	"/>
	<path class="st1" d="M98.6,65.7c0,0-1,6.5,9.5,12.7"/>
	<polyline class="st1" points="81.6,65.7 81.2,73.4 75.3,82.3 	"/>
	<line class="st1" x1="79.6" y1="75.2" x2="76.1" y2="78.4"/>
	<polyline class="st1" points="77.8,83.8 86.1,82.3 88.9,86.4 	"/>
	<line class="st1" x1="110.1" y1="79.2" x2="104.2" y2="116.6"/>
	<polyline class="st1" points="93.4,92.6 96.6,108.9 97.5,115.1 98.1,115.7 98.1,117.8 	"/>
	<polyline class="st1" points="130.9,89.2 130.9,92.6 133,102.9 133.4,107.6 133.4,118.3 133.9,120.5 134.4,131.9 	"/>
	<path class="st1" d="M62.7,101.1l1.7,48.6c0,0-3.6,5.8-3.4,11.5l1.1,22.2l-0.6,12.5c0,0,0.9,10.5-0.5,12.2l-3.6,4.9
		c0,0-1.1,13.1-0.3,14.9"/>
	<path class="st1" d="M134.4,139.2c0,0,7.1,11.3,8.1,41.6c0,0,4.9,24.4,5.9,25.3"/>
	<path class="st1" d="M61.6,249.6c0,0,4.3,4.3,5.8,4.3"/>
	<polyline class="st1" points="71.3,248.8 71.3,258.6 74.2,278.7 76.7,302.9 80.4,308.7 	"/>
	<path class="st1" d="M89.5,254.3v22.2v9.6c0,0,2.6,14.9-1,24.4"/>
	<line class="st1" x1="113.3" y1="253.9" x2="119.1" y2="261.2"/>
	<path class="st1" d="M117.5,253.5l1.5,31.1c0,0-4.1,14.6,4,19.1l2.1,3.8"/>
	<polyline class="st1" points="136.4,258.7 135.1,267 134.4,284.5 133.3,299 133.3,296.2 138.8,307.1 139.9,309.3 	"/>
	<path class="st1" d="M76.7,305.2l-2.6,2.3l-4,12.7l-0.4-3.7l3.5,15.1l0.7,10.3l0.8,2.5l0.6,10.3c0,0,2.8,27.2,5.3,33.7l2.7,19.3
		l2,16.3l-0.5,3.2l0.9,2.5v3.8"/>
	<polyline class="st1" points="88.9,311.3 88.9,352.9 88.9,387.6 89.5,392.7 91.4,426 93.1,445.1 	"/>
	<path class="st1" d="M119,306.5c0,0,0.1,28.1,2.3,34.1l1.8,16.7l-0.5,14"/>
	<polyline class="st1" points="141,314.2 139.2,320.9 138.5,332.4 135.8,349.9 128.6,384.6 123.2,412.5 122.3,423.9 121.1,438 	"/>
	<polyline class="st1" points="121.7,350.3 120.5,374 119,393.1 116.8,403.8 116.8,407.8 	"/>
	<polyline class="st1" points="116.8,411.5 116.8,414.2 115.6,427.2 115.6,433.6 114.4,436.5 113.1,438.7 112.2,440.1 114.1,444.2 	
		"/>
	<polyline class="st1" points="121.1,440.4 121.7,446.3 119.7,449 	"/>
	<path class="st1" d="M84.5,436.2l0.6,11.4l1.4,2l-1,1.8v3.5l-4.7,23.1c0,0-1.6,4.6-1.6,5"/>
	<path class="st1" d="M93.6,438l0.4,6.7l-2.9,2.1l0.7,0.7l2.2,8.1l5,23.2l1,6.2l1.2,2.3l0.8,0.8c0,0-1,4.4-5.1,1.7
		c0,0-8.5-4.5-10.5-3.4s-4.8-1.6-4.8-1.6"/>
	<path class="st1" d="M111.7,448v2.5c0,0,4.7,18.6-5.8,38.1c0,0-1.4,1.1-1.7,0.6c0,0,1.9,3.5,6.5,2.8"/>
	<polyline class="st1" points="112.7,491.1 114.4,489.3 115.6,490.2 120.7,489.7 124.4,490.2 	"/>
	<path class="st1" d="M128.3,489.3c0,0,1.7-0.1,1.9-0.8"/>
</g>
<g id="dress">
	<path class="st2" d="M75.9,78.6c0,0,1.2,10.5,13.5,37.7l3.4,6.6c0,0,6.6,7.6,7.1,9.3"/>
	<path class="st2" d="M74.8,78.6c0,0-11.2,11.4-18.6,16.2"/>
	<path class="st2" d="M57.9,92l7,13.4c0,0,8.4,19.8,5.1,33.8"/>
	<path class="st2" d="M75.9,118.2l-6.7,20.9c0,0,4.5,7.7,3.4,14.1"/>
	<path class="st2" d="M69.1,117.7c0,0,6.3,13.4,6.7,18.1"/>
	<line class="st2" x1="73.2" y1="129" x2="74.8" y2="140.8"/>
	<path class="st2" d="M74.8,136.2l-1.7,3.8c0,0,0.4,25.8-2.4,37.3"/>
	<path class="st2" d="M110.3,77.2c0,0,9.8,4.8,13.8,6c4,1.2,7.7,3.4,7.7,3.4"/>
	<polyline class="st2" points="111.9,78.6 111.9,88.4 104.4,121.4 99.9,133.1 101.8,166.2 103,172.6 103,176.4 104.5,184.4 
		107.4,227.5 	"/>
	<path class="st2" d="M99,132.2l-8.2,26c0,0-13.3,22.4-24,20.4l4-3.7"/>
	<path class="st2" d="M66.8,179.2l0.7,32c0,0,2.1,12.5,3.3,14.2"/>
	<path class="st2" d="M67.9,179.8l-1.7,31.1c0,0,1.3,11.1,0,13.5"/>
	<polyline class="st2" points="101.7,164.7 102.3,179.8 105.9,217.6 	"/>
	<path class="st2" d="M111.9,83.4c0,0-5.8-2.2,0-12.6"/>
	<path class="st2" d="M112.5,77c0,0,0.9,8.4,14.8,7.3"/>
	<path class="st2" d="M130.3,86.7c0,0-10.7,31-6.4,44"/>
	<line class="st2" x1="115.5" y1="115.6" x2="121" y2="125.2"/>
	<line class="st2" x1="121.9" y1="125.2" x2="123" y2="131.7"/>
	<path class="st2" d="M123.5,129c0,0,1.4,3.7,3.1,3.9v7.8l0.6,3.6v3.4l3.1,14.1l7.5,24.5l1.8,9.9l5.9,21.3l0.9,4"/>
	<path class="st2" d="M64.8,223.4c0,0,10.3,5.5,38.2,5.1l18.1-3.2l15.6-2c0,0,13.1-0.7,13.5-3.1"/>
	<path class="st2" d="M65.3,224.4c0,0-2.6,10-7.1,11.9c0,0-5.1,6.5-2.9,9.3"/>
	<path class="st2" d="M70.2,226.2c0,0-6,5.6-7.5,10.3c0,0-5.1,4.5-4.8,7.6"/>
	<path class="st2" d="M58,244.9h4.2c0,0,5,2.3,6.7,2"/>
	<line class="st2" x1="55.3" y1="243.6" x2="60" y2="249.5"/>
	<line class="st2" x1="57.1" y1="244.9" x2="61.4" y2="247.9"/>
	<path class="st2" d="M148,222.9c0,0,3.3,4,2.9,10.8"/>
	<path class="st2" d="M151.8,229.6c0,0,2.3,6.2,8.6,8.6"/>
	<polyline class="st2" points="76.2,226.2 88.1,226.2 105.9,228.3 	"/>
	<path class="st2" d="M109.7,227.3c0,0,25,2.9,33.4-4.3"/>
	<path class="st2" d="M124.6,225c0,0-2.3,6.9,0,10.2"/>
	<path class="st2" d="M144.2,222.9c0,0-0.5,12.6,3.1,15.2l0.7-1.3"/>
	<path class="st2" d="M144.2,229.1c0,0,1.7,9.3,9.1,10.4"/>
	<path class="st2" d="M150.2,240.6c0,0,0.1-3.8,1.6-2.4s6.2,1.8,7,0"/>
	<line class="st2" x1="159.4" y1="238.1" x2="153.2" y2="245.6"/>
	<polyline class="st2" points="154.5,241.9 144.2,252.9 153.2,241.9 	"/>
	<line class="st2" x1="153.2" y1="240.1" x2="150.9" y2="241.9"/>
	<path class="st2" d="M150.9,243.6l-4.6-0.5c0,0-6.6,3.1-5.8,9.8c0,0-4,3.9-6.9,1l1.2-4.4"/>
	<path class="st2" d="M146.9,244.9l-2.7,7.5L146.9,244.9z"/>
	<line class="st2" x1="143.1" y1="249.5" x2="146.9" y2="244.9"/>
	<line class="st2" x1="142.2" y1="248.6" x2="146.4" y2="244.1"/>
	<path class="st2" d="M133.8,252.3v-3.2l1.2-2.7c0,0,0.2-2-2.3-1.5l-5.1,0.7l-5.1,0.3c0,0-6.7,2.7-2.3,5.6"/>
	<path class="st2" d="M122.4,251.5l-1-2.9c-0.4,0.6-3.7-0.6-3.7-0.6v-3.1l-1-4.3l0.5-10"/>
	<path class="st2" d="M109.7,255c0,0,8.7,2.2,12.1-3.5"/>
	<path class="st2" d="M130.5,229.6c0,0,2.1,11.6,4.5,14.1"/>
	<line class="st2" x1="136.3" y1="239.5" x2="137.6" y2="230.5"/>
	<polyline class="st2" points="140.4,241.9 140.4,240.6 138.2,231.9 	"/>
	<path class="st2" d="M75.4,230.1c0,0-1.2,12.8-5.1,16.8"/>
	<polyline class="st2" points="71.8,246.9 70.8,250 69.5,252.9 	"/>
	<line class="st2" x1="68.8" y1="251" x2="68.8" y2="247.4"/>
	<line class="st2" x1="69.5" y1="247.4" x2="70.4" y2="251"/>
	<path class="st2" d="M70.2,252.3c0,0,6.4-1.8,7-2.4"/>
	<path class="st2" d="M89.4,252.3c0,0-2.8-0.2-2.9-1.3c-0.1-1.1-3.7-5.2-10.3-1.1"/>
	<path class="st2" d="M86.3,233.8l-0.9,1.3c0,0,0.1,11.8,1.8,13.4"/>
	<path class="st2" d="M91.8,228.6c0,0,0.9,4.5,0,9.2c0,0-1.6,8-0.7,9.4"/>
	<path class="st2" d="M102.3,229.1l1.5,12.8c0,0,1.5,4.3,2.1,4.5"/>
	<path class="st2" d="M109,239.2c0,0,0.5-4.6,1.8-5.5"/>
	<path class="st2" d="M111.4,234.3c0,0,3.2,8.9,2.9,13.1"/>
	<polyline class="st2" points="89.4,249.9 92.2,250.2 109,248.1 	"/>
	<path class="st2" d="M107.9,252.3c-1.1-0.1-4.1-2.1-4.1-2.1l3.7-1.1"/>
	<line class="st2" x1="107.9" y1="250.2" x2="106.5" y2="250.2"/>
	<path class="st2" d="M90.8,251.1c0,0,0.7,6.4-3.5,1.2"/>
</g>
</svg>
